<svg width="482" height="290" xmlns="http://www.w3.org/2000/svg" xmlns:xlink="http://www.w3.org/1999/xlink" overflow="hidden"><defs><clipPath id="clip0"><path d="M399 215 881 215 881 505 399 505Z" fill-rule="evenodd" clip-rule="evenodd"/></clipPath><clipPath id="clip1"><path d="M400 216 880 216 880 504 400 504Z" fill-rule="evenodd" clip-rule="evenodd"/></clipPath><clipPath id="clip2"><path d="M400 216 880 216 880 504 400 504Z" fill-rule="evenodd" clip-rule="evenodd"/></clipPath><clipPath id="clip3"><path d="M433 230 866 230 866 441 433 441Z" fill-rule="evenodd" clip-rule="evenodd"/></clipPath><clipPath id="clip4"><path d="M433 230 866 230 866 441 433 441Z" fill-rule="evenodd" clip-rule="evenodd"/></clipPath><clipPath id="clip5"><path d="M400 216 880 216 880 504 400 504Z" fill-rule="evenodd" clip-rule="evenodd"/></clipPath><clipPath id="clip6"><path d="M400 216 880 216 880 504 400 504Z" fill-rule="evenodd" clip-rule="evenodd"/></clipPath><clipPath id="clip7"><path d="M400 216 880 216 880 504 400 504Z" fill-rule="evenodd" clip-rule="evenodd"/></clipPath><clipPath id="clip8"><path d="M400 216 880 216 880 504 400 504Z" fill-rule="evenodd" clip-rule="evenodd"/></clipPath><clipPath id="clip9"><path d="M400 216 880 216 880 504 400 504Z" fill-rule="evenodd" clip-rule="evenodd"/></clipPath><clipPath id="clip10"><path d="M400 216 880 216 880 504 400 504Z" fill-rule="evenodd" clip-rule="evenodd"/></clipPath><clipPath id="clip11"><path d="M400 216 880 216 880 504 400 504Z" fill-rule="evenodd" clip-rule="evenodd"/></clipPath><clipPath id="clip12"><path d="M400 216 880 216 880 504 400 504Z" fill-rule="evenodd" clip-rule="evenodd"/></clipPath><clipPath id="clip13"><path d="M400 216 880 216 880 504 400 504Z" fill-rule="evenodd" clip-rule="evenodd"/></clipPath><clipPath id="clip14"><path d="M400 216 880 216 880 504 400 504Z" fill-rule="evenodd" clip-rule="evenodd"/></clipPath><clipPath id="clip15"><path d="M400 216 880 216 880 504 400 504Z" fill-rule="evenodd" clip-rule="evenodd"/></clipPath><clipPath id="clip16"><path d="M400 216 880 216 880 504 400 504Z" fill-rule="evenodd" clip-rule="evenodd"/></clipPath><clipPath id="clip17"><path d="M400 216 880 216 880 504 400 504Z" fill-rule="evenodd" clip-rule="evenodd"/></clipPath><clipPath id="clip18"><path d="M400 216 880 216 880 504 400 504Z" fill-rule="evenodd" clip-rule="evenodd"/></clipPath><clipPath id="clip19"><path d="M400 216 880 216 880 504 400 504Z" fill-rule="evenodd" clip-rule="evenodd"/></clipPath><clipPath id="clip20"><path d="M400 216 880 216 880 504 400 504Z" fill-rule="evenodd" clip-rule="evenodd"/></clipPath><clipPath id="clip21"><path d="M400 216 880 216 880 504 400 504Z" fill-rule="evenodd" clip-rule="evenodd"/></clipPath><clipPath id="clip22"><path d="M400 216 880 216 880 504 400 504Z" fill-rule="evenodd" clip-rule="evenodd"/></clipPath><clipPath id="clip23"><path d="M400 216 880 216 880 504 400 504Z" fill-rule="evenodd" clip-rule="evenodd"/></clipPath></defs><g clip-path="url(#clip0)" transform="translate(-399 -215)"><g clip-path="url(#clip1)"><path d="M433.5 410.5 865.5 410.5M433.5 380.5 865.5 380.5M433.5 350.5 865.5 350.5M433.5 320.5 865.5 320.5M433.5 290.5 865.5 290.5M433.5 260.5 865.5 260.5M433.5 230.5 865.5 230.5" stroke="#D9D9D9" stroke-linejoin="round" stroke-miterlimit="10" fill="none"/></g><g clip-path="url(#clip2)"><path d="M433.5 440.5 865.5 440.5" stroke="#D9D9D9" stroke-linejoin="round" stroke-miterlimit="10" fill="none" fill-rule="evenodd"/></g><g clip-path="url(#clip3)"><path d="M464.5 332.5 526.5 314.5 587.5 320.5 649.5 314.5 711.5 350.5 772.5 344.5 834.5 344.5" stroke="#4472C4" stroke-width="3" stroke-linecap="round" stroke-linejoin="round" stroke-miterlimit="10" fill="none"/></g><g clip-path="url(#clip4)"><path d="M464.5 254.5 526.5 266.5 587.5 296.5 649.5 278.5 711.5 314.5 772.5 302.5 834.5 284.5" stroke="#ED7D31" stroke-width="3" stroke-linecap="round" stroke-linejoin="round" stroke-miterlimit="10" fill="none"/></g><g clip-path="url(#clip5)"><text fill="#595959" font-family="Yu Gothic,Yu Gothic_MSFontService,sans-serif" font-weight="400" transform="translate(415.34 444)">0</text></g><g clip-path="url(#clip6)"><text fill="#595959" font-family="Yu Gothic,Yu Gothic_MSFontService,sans-serif" font-weight="400" transform="translate(415.34 414)">5</text></g><g clip-path="url(#clip7)"><text fill="#595959" font-family="Yu Gothic,Yu Gothic_MSFontService,sans-serif" font-weight="400" transform="translate(408.667 384)">10</text></g><g clip-path="url(#clip8)"><text fill="#595959" font-family="Yu Gothic,Yu Gothic_MSFontService,sans-serif" font-weight="400" transform="translate(408.667 354)">15</text></g><g clip-path="url(#clip9)"><text fill="#595959" font-family="Yu Gothic,Yu Gothic_MSFontService,sans-serif" font-weight="400" transform="translate(408.667 324)">20</text></g><g clip-path="url(#clip10)"><text fill="#595959" font-family="Yu Gothic,Yu Gothic_MSFontService,sans-serif" font-weight="400" transform="translate(408.667 294)">25</text></g><g clip-path="url(#clip11)"><text fill="#595959" font-family="Yu Gothic,Yu Gothic_MSFontService,sans-serif" font-weight="400" transform="translate(408.667 264)">30</text></g><g clip-path="url(#clip12)"><text fill="#595959" font-family="Yu Gothic,Yu Gothic_MSFontService,sans-serif" font-weight="400" transform="translate(408.667 234)">35</text></g><g clip-path="url(#clip13)"><text fill="#595959" font-family="Yu Gothic,Yu Gothic_MSFontService,sans-serif" font-weight="400" transform="translate(457.836 461)">23</text></g><g clip-path="url(#clip14)"><text fill="#595959" font-family="Yu Gothic,Yu Gothic_MSFontService,sans-serif" font-weight="400" transform="translate(519.501 461)">24</text></g><g clip-path="url(#clip15)"><text fill="#595959" font-family="Yu Gothic,Yu Gothic_MSFontService,sans-serif" font-weight="400" transform="translate(581.166 461)">25</text></g><g clip-path="url(#clip16)"><text fill="#595959" font-family="Yu Gothic,Yu Gothic_MSFontService,sans-serif" font-weight="400" transform="translate(642.832 461)">26</text></g><g clip-path="url(#clip17)"><text fill="#595959" font-family="Yu Gothic,Yu Gothic_MSFontService,sans-serif" font-weight="400" transform="translate(704.497 461)">27</text></g><g clip-path="url(#clip18)"><text fill="#595959" font-family="Yu Gothic,Yu Gothic_MSFontService,sans-serif" font-weight="400" transform="translate(766.162 461)">28</text></g><g clip-path="url(#clip19)"><text fill="#595959" font-family="Yu Gothic,Yu Gothic_MSFontService,sans-serif" font-weight="400" transform="translate(827.827 461)">29</text></g><g clip-path="url(#clip20)"><path d="M584.5 484.5 610.5 484.5" stroke="#4472C4" stroke-width="3" stroke-linecap="round" stroke-linejoin="round" stroke-miterlimit="10" fill="none" fill-rule="evenodd"/></g><g clip-path="url(#clip21)"><text fill="#595959" font-family="Yu Gothic,Yu Gothic_MSFontService,sans-serif" font-weight="400" transform="translate(612.767 487)">最低</text></g><g clip-path="url(#clip22)"><path d="M647.5 484.5 673.5 484.5" stroke="#ED7D31" stroke-width="3" stroke-linecap="round" stroke-linejoin="round" stroke-miterlimit="10" fill="none" fill-rule="evenodd"/></g><g clip-path="url(#clip23)"><text fill="#595959" font-family="Yu Gothic,Yu Gothic_MSFontService,sans-serif" font-weight="400" transform="translate(676.233 487)">最高</text></g></g></svg>